%TF.GenerationSoftware,KiCad,Pcbnew,8.0.4*%
%TF.CreationDate,2025-03-08T14:23:22+05:30*%
%TF.ProjectId,CODE GREEN,434f4445-2047-4524-9545-4e2e6b696361,rev?*%
%TF.SameCoordinates,Original*%
%TF.FileFunction,Copper,L1,Top*%
%TF.FilePolarity,Positive*%
%FSLAX46Y46*%
G04 Gerber Fmt 4.6, Leading zero omitted, Abs format (unit mm)*
G04 Created by KiCad (PCBNEW 8.0.4) date 2025-03-08 14:23:22*
%MOMM*%
%LPD*%
G01*
G04 APERTURE LIST*
%TA.AperFunction,Conductor*%
%ADD10C,0.200000*%
%TD*%
%TA.AperFunction,ComponentPad*%
%ADD11R,1.700000X1.700000*%
%TD*%
%TA.AperFunction,ComponentPad*%
%ADD12O,1.700000X1.700000*%
%TD*%
%TA.AperFunction,ComponentPad*%
%ADD13R,1.600000X1.600000*%
%TD*%
%TA.AperFunction,ComponentPad*%
%ADD14C,1.600000*%
%TD*%
%TA.AperFunction,ComponentPad*%
%ADD15C,2.000000*%
%TD*%
%TA.AperFunction,ComponentPad*%
%ADD16R,2.400000X2.400000*%
%TD*%
%TA.AperFunction,ComponentPad*%
%ADD17C,2.400000*%
%TD*%
%TA.AperFunction,ComponentPad*%
%ADD18O,1.600000X1.600000*%
%TD*%
%TA.AperFunction,ComponentPad*%
%ADD19C,1.530000*%
%TD*%
%TA.AperFunction,ComponentPad*%
%ADD20R,1.530000X1.530000*%
%TD*%
%TA.AperFunction,ViaPad*%
%ADD21C,0.600000*%
%TD*%
G04 APERTURE END LIST*
%TO.N,SIGNAL 3*%
D10*
X31612800Y-24079200D02*
X157800000Y-24079200D01*
X157800000Y-124383800D01*
X31612800Y-124383800D01*
X31612800Y-24079200D01*
%TD*%
D11*
%TO.P,J2,1*%
%TO.N,GND1*%
X139268200Y-118897400D03*
D12*
%TO.P,J2,2*%
%TO.N,Net-(J19-Pad1)*%
X141808200Y-118897400D03*
%TO.P,J2,3*%
%TO.N,GND1*%
X144348200Y-118897400D03*
%TO.P,J2,4*%
%TO.N,+5V*%
X146888200Y-118897400D03*
%TD*%
D13*
%TO.P,C1,1*%
%TO.N,Net-(C1-Pad1)*%
X149590975Y-48157800D03*
D14*
%TO.P,C1,2*%
%TO.N,GND1*%
X152090975Y-48157800D03*
%TD*%
D15*
%TO.P,U2,1,B-*%
%TO.N,GND1*%
X92456000Y-49657000D03*
%TO.P,U2,2,B+*%
%TO.N,Net-(U2-B+)*%
X106456000Y-49657000D03*
%TO.P,U2,3,IN-*%
%TO.N,unconnected-(U2-IN--Pad3)*%
X92456000Y-26657000D03*
%TO.P,U2,4,IN+*%
%TO.N,unconnected-(U2-IN+-Pad4)*%
X106456000Y-26657000D03*
%TO.P,U2,5,OUT-*%
%TO.N,GND1*%
X94996000Y-26657000D03*
%TO.P,U2,6,OUT+*%
%TO.N,Net-(U2-OUT+)*%
X103916000Y-26657000D03*
%TD*%
D16*
%TO.P,J18,1*%
%TO.N,Net-(U2-B+)*%
X149718800Y-76349800D03*
D17*
%TO.P,J18,2*%
%TO.N,GND1*%
X149718800Y-72849800D03*
%TD*%
D14*
%TO.P,R1,1*%
%TO.N,Net-(C1-Pad1)*%
X140001200Y-42857800D03*
D18*
%TO.P,R1,2*%
%TO.N,+5V*%
X150161200Y-42857800D03*
%TD*%
D11*
%TO.P,J17,1*%
%TO.N,unconnected-(J17-Pad1)*%
X34391600Y-104546400D03*
D12*
%TO.P,J17,2*%
%TO.N,unconnected-(J17-Pad2)*%
X36931600Y-104546400D03*
%TO.P,J17,3*%
%TO.N,SCL*%
X39471600Y-104546400D03*
%TO.P,J17,4*%
%TO.N,SDA*%
X42011600Y-104546400D03*
%TO.P,J17,5*%
%TO.N,+5V*%
X44551600Y-104546400D03*
%TO.P,J17,6*%
%TO.N,GND1*%
X47091600Y-104546400D03*
%TD*%
D11*
%TO.P,J8,1*%
%TO.N,SCL*%
X141589600Y-30124800D03*
D12*
%TO.P,J8,2*%
%TO.N,SDA*%
X144129600Y-30124800D03*
%TO.P,J8,3*%
%TO.N,GND1*%
X146669600Y-30124800D03*
%TO.P,J8,4*%
%TO.N,+3.3V*%
X149209600Y-30124800D03*
%TD*%
D11*
%TO.P,J5,1*%
%TO.N,Net-(C1-Pad1)*%
X53035600Y-121106800D03*
D12*
%TO.P,J5,2*%
%TO.N,GND1*%
X55575600Y-121106800D03*
%TO.P,J5,3*%
%TO.N,SIGNAL 9*%
X58115600Y-121106800D03*
%TO.P,J5,4*%
%TO.N,GND1*%
X60655600Y-121106800D03*
%TO.P,J5,5*%
%TO.N,SIGNAL 10*%
X63195600Y-121106800D03*
%TO.P,J5,6*%
%TO.N,Net-(C1-Pad1)*%
X65735600Y-121106800D03*
%TD*%
D11*
%TO.P,J15,1*%
%TO.N,unconnected-(J15-Pad1)*%
X32613600Y-52273200D03*
D12*
%TO.P,J15,2*%
%TO.N,SIGNAL 7*%
X35153600Y-52273200D03*
%TO.P,J15,3*%
%TO.N,GND1*%
X37693600Y-52273200D03*
%TO.P,J15,4*%
%TO.N,+5V*%
X40233600Y-52273200D03*
%TD*%
D11*
%TO.P,J14,1*%
%TO.N,SIGNAL 8*%
X136601600Y-105308000D03*
D12*
%TO.P,J14,2*%
%TO.N,GND1*%
X139141600Y-105308000D03*
%TO.P,J14,3*%
%TO.N,+5V*%
X141681600Y-105308000D03*
%TD*%
D11*
%TO.P,J7,1*%
%TO.N,SIGNAL 3*%
X32283400Y-63144400D03*
D12*
%TO.P,J7,2*%
%TO.N,GND1*%
X34823400Y-63144400D03*
%TO.P,J7,3*%
%TO.N,+5V*%
X37363400Y-63144400D03*
%TO.P,J7,4*%
%TO.N,unconnected-(J7-Pad4)*%
X39903400Y-63144400D03*
%TD*%
D11*
%TO.P,J6,1*%
%TO.N,SIGNAL 4*%
X96190200Y-105155600D03*
D12*
%TO.P,J6,2*%
%TO.N,GND1*%
X98730200Y-105155600D03*
%TO.P,J6,3*%
%TO.N,+5V*%
X101270200Y-105155600D03*
%TD*%
D11*
%TO.P,J11,1*%
%TO.N,SIGNAL 12*%
X33553400Y-31927800D03*
D12*
%TO.P,J11,2*%
%TO.N,SIGNAL 11*%
X36093400Y-31927800D03*
%TO.P,J11,3*%
%TO.N,GND1*%
X38633400Y-31927800D03*
%TO.P,J11,4*%
X41173400Y-31927800D03*
%TD*%
D11*
%TO.P,J4,1*%
%TO.N,unconnected-(J4-Pad1)*%
X85344400Y-120979800D03*
D12*
%TO.P,J4,2*%
%TO.N,unconnected-(J4-Pad2)*%
X87884400Y-120979800D03*
%TO.P,J4,3*%
%TO.N,SDL*%
X90424400Y-120979800D03*
%TO.P,J4,4*%
%TO.N,SCA*%
X92964400Y-120979800D03*
%TO.P,J4,5*%
%TO.N,GND1*%
X95504400Y-120979800D03*
%TO.P,J4,6*%
%TO.N,+5V*%
X98044400Y-120979800D03*
%TD*%
D16*
%TO.P,J10,1*%
%TO.N,Net-(U2-OUT+)*%
X150723600Y-65730000D03*
D17*
%TO.P,J10,2*%
%TO.N,GND1*%
X150723600Y-62230000D03*
%TD*%
D16*
%TO.P,J19,1*%
%TO.N,Net-(J19-Pad1)*%
X141201200Y-49007800D03*
D17*
%TO.P,J19,2*%
%TO.N,GND1*%
X144701200Y-49007800D03*
%TD*%
D11*
%TO.P,J13,1*%
%TO.N,SIGNAL 5*%
X114975800Y-105714800D03*
D12*
%TO.P,J13,2*%
%TO.N,GND1*%
X117515800Y-105714800D03*
%TO.P,J13,3*%
%TO.N,+5V*%
X120055800Y-105714800D03*
%TD*%
D11*
%TO.P,J12,1*%
%TO.N,GND1*%
X126796800Y-33398400D03*
D12*
%TO.P,J12,2*%
%TO.N,SIGNAL 6*%
X129336800Y-33398400D03*
%TO.P,J12,3*%
%TO.N,+5V*%
X131876800Y-33398400D03*
%TD*%
D11*
%TO.P,J16,1*%
%TO.N,+5V*%
X118288200Y-121411600D03*
D12*
%TO.P,J16,2*%
%TO.N,SIGNAL 12*%
X120828200Y-121411600D03*
%TO.P,J16,3*%
%TO.N,GND1*%
X123368200Y-121411600D03*
%TD*%
D11*
%TO.P,J3,1*%
%TO.N,unconnected-(J3-Pad1)*%
X34036000Y-78384400D03*
D12*
%TO.P,J3,2*%
%TO.N,+5V*%
X36576000Y-78384400D03*
%TO.P,J3,3*%
%TO.N,GND1*%
X39116000Y-78384400D03*
%TO.P,J3,4*%
%TO.N,SIGNAL 1*%
X41656000Y-78384400D03*
%TD*%
D11*
%TO.P,J1,1*%
%TO.N,unconnected-(J1-Pad1)*%
X67666000Y-105003200D03*
D12*
%TO.P,J1,2*%
%TO.N,SIGNAL 2*%
X70206000Y-105003200D03*
%TO.P,J1,3*%
%TO.N,GND1*%
X72746000Y-105003200D03*
%TO.P,J1,4*%
%TO.N,+5V*%
X75286000Y-105003200D03*
%TD*%
D19*
%TO.P,U1,J3_22,GND__3*%
%TO.N,GND1*%
X75514200Y-85801200D03*
%TO.P,U1,J3_21,GND__2*%
X75514200Y-83261200D03*
%TO.P,U1,J3_20,USB_D-/GPIO19*%
%TO.N,unconnected-(U1-USB_D-{slash}GPIO19-PadJ3_20)*%
X75514200Y-80721200D03*
%TO.P,U1,J3_19,USB_D+/GPIO20*%
%TO.N,unconnected-(U1-USB_D+{slash}GPIO20-PadJ3_19)*%
X75514200Y-78181200D03*
%TO.P,U1,J3_18,GPIO21*%
%TO.N,SCL*%
X75514200Y-75641200D03*
%TO.P,U1,J3_17,GPIO47*%
%TO.N,unconnected-(U1-GPIO47-PadJ3_17)*%
X75514200Y-73101200D03*
%TO.P,U1,J3_16,GPIO48*%
%TO.N,unconnected-(U1-GPIO48-PadJ3_16)*%
X75514200Y-70561200D03*
%TO.P,U1,J3_15,GPIO45*%
%TO.N,unconnected-(U1-GPIO45-PadJ3_15)*%
X75514200Y-68021200D03*
%TO.P,U1,J3_14,GPIO0*%
%TO.N,SIGNAL2*%
X75514200Y-65481200D03*
%TO.P,U1,J3_13,GPIO35*%
%TO.N,SIGNAL 10*%
X75514200Y-62941200D03*
%TO.P,U1,J3_12,GPIO36*%
%TO.N,SIGNAL 9*%
X75514200Y-60401200D03*
%TO.P,U1,J3_11,GPIO37*%
%TO.N,SIGNAL 11*%
X75514200Y-57861200D03*
%TO.P,U1,J3_10,GPIO38*%
%TO.N,unconnected-(U1-GPIO38-PadJ3_10)*%
X75514200Y-55321200D03*
%TO.P,U1,J3_9,MTCK/GPIO39*%
%TO.N,SIGNAL 12*%
X75514200Y-52781200D03*
%TO.P,U1,J3_8,MTDO/GPIO40*%
%TO.N,unconnected-(U1-MTDO{slash}GPIO40-PadJ3_8)*%
X75514200Y-50241200D03*
%TO.P,U1,J3_7,MTDI/GPIO41*%
%TO.N,unconnected-(U1-MTDI{slash}GPIO41-PadJ3_7)*%
X75514200Y-47701200D03*
%TO.P,U1,J3_6,MTMS/GPIO42*%
%TO.N,unconnected-(U1-MTMS{slash}GPIO42-PadJ3_6)*%
X75514200Y-45161200D03*
%TO.P,U1,J3_5,GPIO2*%
%TO.N,SIGNAL 3*%
X75514200Y-42621200D03*
%TO.P,U1,J3_4,GPIO1*%
%TO.N,SIGNAL1*%
X75514200Y-40081200D03*
%TO.P,U1,J3_3,U0RXD/GPIO44*%
%TO.N,unconnected-(U1-U0RXD{slash}GPIO44-PadJ3_3)*%
X75514200Y-37541200D03*
%TO.P,U1,J3_2,U0TXD/GPIO43*%
%TO.N,unconnected-(U1-U0TXD{slash}GPIO43-PadJ3_2)*%
X75514200Y-35001200D03*
%TO.P,U1,J3_1,GND__1*%
%TO.N,GND1*%
X75514200Y-32461200D03*
%TO.P,U1,J1_22,GND*%
X52654200Y-85801200D03*
%TO.P,U1,J1_21,5V0*%
%TO.N,+5V*%
X52654200Y-83261200D03*
%TO.P,U1,J1_20,GPIO14*%
%TO.N,unconnected-(U1-GPIO14-PadJ1_20)*%
X52654200Y-80721200D03*
%TO.P,U1,J1_19,GPIO13*%
%TO.N,unconnected-(U1-GPIO13-PadJ1_19)*%
X52654200Y-78181200D03*
%TO.P,U1,J1_18,GPIO12*%
%TO.N,unconnected-(U1-GPIO12-PadJ1_18)*%
X52654200Y-75641200D03*
%TO.P,U1,J1_17,GPIO11*%
%TO.N,unconnected-(U1-GPIO11-PadJ1_17)*%
X52654200Y-73101200D03*
%TO.P,U1,J1_16,GPIO10*%
%TO.N,unconnected-(U1-GPIO10-PadJ1_16)*%
X52654200Y-70561200D03*
%TO.P,U1,J1_15,GPIO9*%
%TO.N,unconnected-(U1-GPIO9-PadJ1_15)*%
X52654200Y-68021200D03*
%TO.P,U1,J1_14,GPIO46*%
%TO.N,unconnected-(U1-GPIO46-PadJ1_14)*%
X52654200Y-65481200D03*
%TO.P,U1,J1_13,GPIO3*%
%TO.N,SIGNAL 4*%
X52654200Y-62941200D03*
%TO.P,U1,J1_12,GPIO8*%
%TO.N,unconnected-(U1-GPIO8-PadJ1_12)*%
X52654200Y-60401200D03*
%TO.P,U1,J1_11,GPIO18*%
%TO.N,SDA*%
X52654200Y-57861200D03*
%TO.P,U1,J1_10,GPIO17*%
%TO.N,unconnected-(U1-GPIO17-PadJ1_10)*%
X52654200Y-55321200D03*
%TO.P,U1,J1_9,GPIO16*%
%TO.N,unconnected-(U1-GPIO16-PadJ1_9)*%
X52654200Y-52781200D03*
%TO.P,U1,J1_8,GPIO15*%
%TO.N,unconnected-(U1-GPIO15-PadJ1_8)*%
X52654200Y-50241200D03*
%TO.P,U1,J1_7,GPIO7*%
%TO.N,SIGNAL 8*%
X52654200Y-47701200D03*
%TO.P,U1,J1_6,GPIO6*%
%TO.N,SIGNAL 7*%
X52654200Y-45161200D03*
%TO.P,U1,J1_5,GPIO5*%
%TO.N,SIGNAL 6*%
X52654200Y-42621200D03*
%TO.P,U1,J1_4,GPIO4*%
%TO.N,SIGNAL 5*%
X52654200Y-40081200D03*
%TO.P,U1,J1_3,RST*%
%TO.N,unconnected-(U1-RST-PadJ1_3)*%
X52654200Y-37541200D03*
%TO.P,U1,J1_2,3V3__1*%
%TO.N,+3.3V*%
X52654200Y-35001200D03*
D20*
%TO.P,U1,J1_1,3V3*%
X52654200Y-32461200D03*
%TD*%
D21*
%TO.N,Net-(J19-Pad1)*%
X144000000Y-56200000D03*
%TO.N,SIGNAL 12*%
X45200000Y-37800000D03*
%TD*%
D10*
%TO.N,*%
X102400000Y-88800000D02*
X102400000Y-89000000D01*
%TO.N,+5V*%
X140701800Y-33398400D02*
X150161200Y-42857800D01*
X131876800Y-33398400D02*
X140701800Y-33398400D01*
%TO.N,SIGNAL 12*%
X45000000Y-37800000D02*
X45000000Y-37800000D01*
X45200000Y-37800000D02*
X45000000Y-37800000D01*
X45200000Y-38000000D02*
X45200000Y-37800000D01*
X52800000Y-41200000D02*
X48400000Y-41200000D01*
X54000000Y-43000000D02*
X54000000Y-41800000D01*
X55600000Y-44600000D02*
X54000000Y-43000000D01*
X54000000Y-41800000D02*
X53400000Y-41800000D01*
X53400000Y-41800000D02*
X52800000Y-41200000D01*
X63781200Y-52781200D02*
X55600000Y-44600000D01*
X75514200Y-52781200D02*
X63781200Y-52781200D01*
X81200000Y-58400000D02*
X81133000Y-58400000D01*
X81200000Y-78000000D02*
X81200000Y-58400000D01*
X120828200Y-117628200D02*
X81200000Y-78000000D01*
X120828200Y-121411600D02*
X120828200Y-117628200D01*
X81133000Y-58400000D02*
X75514200Y-52781200D01*
%TO.N,+5V*%
X146888200Y-110514600D02*
X141681600Y-105308000D01*
X146888200Y-118897400D02*
X146888200Y-110514600D01*
%TO.N,GND1*%
X75514200Y-32461200D02*
X89191800Y-32461200D01*
X89191800Y-32461200D02*
X94996000Y-26657000D01*
X94996000Y-26657000D02*
X94996000Y-47117000D01*
X94996000Y-47117000D02*
X92456000Y-49657000D01*
X118398400Y-25000000D02*
X96400000Y-25000000D01*
X126796800Y-33398400D02*
X118398400Y-25000000D01*
X96400000Y-25000000D02*
X94996000Y-26404000D01*
X94996000Y-26404000D02*
X94996000Y-26657000D01*
%TO.N,Net-(C1-Pad1)*%
X152948775Y-44800000D02*
X149590975Y-48157800D01*
X153800000Y-44800000D02*
X152948775Y-44800000D01*
X153600000Y-51800000D02*
X153600000Y-45000000D01*
X153600000Y-45000000D02*
X153800000Y-44800000D01*
X149400000Y-56000000D02*
X153600000Y-51800000D01*
X147000000Y-56000000D02*
X149400000Y-56000000D01*
X145000000Y-58000000D02*
X147000000Y-56000000D01*
X139400000Y-58000000D02*
X145000000Y-58000000D01*
X139400000Y-78600000D02*
X139400000Y-58000000D01*
X150600000Y-89800000D02*
X139400000Y-78600000D01*
X150600000Y-123800000D02*
X150600000Y-89800000D01*
X68428800Y-123800000D02*
X150600000Y-123800000D01*
X65735600Y-121106800D02*
X68428800Y-123800000D01*
X141000000Y-45800000D02*
X140001200Y-44801200D01*
X147200000Y-45800000D02*
X141000000Y-45800000D01*
X149557800Y-48157800D02*
X147200000Y-45800000D01*
X149590975Y-48157800D02*
X149557800Y-48157800D01*
X140001200Y-44801200D02*
X140001200Y-42857800D01*
%TO.N,GND1*%
X148848775Y-51400000D02*
X147093400Y-51400000D01*
X152090975Y-48157800D02*
X148848775Y-51400000D01*
X147093400Y-51400000D02*
X144701200Y-49007800D01*
%TO.N,+3.3V*%
X52654200Y-32461200D02*
X52654200Y-35001200D01*
%TO.N,SIGNAL 5*%
X77400000Y-41200000D02*
X53773000Y-41200000D01*
X114975800Y-78775800D02*
X77400000Y-41200000D01*
X114975800Y-105714800D02*
X114975800Y-78775800D01*
X53773000Y-41200000D02*
X52654200Y-40081200D01*
%TO.N,GND1*%
X139141600Y-113690800D02*
X144348200Y-118897400D01*
X139141600Y-105308000D02*
X139141600Y-113690800D01*
X139268200Y-105434600D02*
X139141600Y-105308000D01*
X139268200Y-118897400D02*
X139268200Y-105434600D01*
X130698400Y-118897400D02*
X117515800Y-105714800D01*
X139268200Y-118897400D02*
X130698400Y-118897400D01*
X136754000Y-121411600D02*
X139268200Y-118897400D01*
X123368200Y-121411600D02*
X136754000Y-121411600D01*
X124200000Y-122243400D02*
X123368200Y-121411600D01*
X124200000Y-123200000D02*
X124200000Y-122243400D01*
X97724600Y-123200000D02*
X124200000Y-123200000D01*
X95504400Y-120979800D02*
X97724600Y-123200000D01*
X95400000Y-119600000D02*
X95504400Y-119704400D01*
X95504400Y-119704400D02*
X95504400Y-120979800D01*
X98730200Y-116269800D02*
X95400000Y-119600000D01*
X98730200Y-105155600D02*
X98730200Y-116269800D01*
X92374600Y-98800000D02*
X98730200Y-105155600D01*
X75600000Y-98800000D02*
X92374600Y-98800000D01*
X72746000Y-101654000D02*
X75600000Y-98800000D01*
X72746000Y-105003200D02*
X72746000Y-101654000D01*
X72746000Y-107854000D02*
X72746000Y-105003200D01*
X60655600Y-119944400D02*
X72746000Y-107854000D01*
X60655600Y-121106800D02*
X60655600Y-119944400D01*
X60200000Y-116600000D02*
X60400000Y-116400000D01*
X60400000Y-116400000D02*
X60400000Y-120851200D01*
X60400000Y-120851200D02*
X60655600Y-121106800D01*
X56600000Y-116600000D02*
X60200000Y-116600000D01*
X56600000Y-120082400D02*
X56600000Y-116600000D01*
X55575600Y-121106800D02*
X56600000Y-120082400D01*
X47091600Y-112622800D02*
X55575600Y-121106800D01*
X47091600Y-104546400D02*
X47091600Y-112622800D01*
X74600000Y-28000000D02*
X75514200Y-28914200D01*
X37693600Y-52273200D02*
X37693600Y-60274200D01*
X52654200Y-85801200D02*
X52654200Y-98983800D01*
X39116000Y-78384400D02*
X46532800Y-85801200D01*
X34823400Y-63144400D02*
X34823400Y-74091800D01*
X75514200Y-83261200D02*
X75514200Y-85801200D01*
X52654200Y-85801200D02*
X75514200Y-85801200D01*
X37693600Y-60274200D02*
X34823400Y-63144400D01*
X45101200Y-28000000D02*
X74600000Y-28000000D01*
X41173400Y-31927800D02*
X45101200Y-28000000D01*
X38633400Y-51333400D02*
X37693600Y-52273200D01*
X34823400Y-74091800D02*
X39116000Y-78384400D01*
X38633400Y-31927800D02*
X38633400Y-51333400D01*
X52654200Y-98983800D02*
X47091600Y-104546400D01*
X75514200Y-28914200D02*
X75514200Y-32461200D01*
X46532800Y-85801200D02*
X52654200Y-85801200D01*
%TO.N,SIGNAL 12*%
X48400000Y-41200000D02*
X45200000Y-38000000D01*
%TD*%
M02*
